# xmcd
#
# Track frame offsets:
#	150
#	17427
#	33605
#	48317
#	64957
#	79525
#	92002
#	107925
#	124787
#	141215
#	154232
#	169185
#	182327
#
# Disc length: 2650 seconds
#
# Revision: 0
# Processed by: cddbd v1.4PL0 Copyright (c) Steve Scherf et al.
# Submitted via: dBpowerAMP V4.0
#
DISCID=a60a580d
DTITLE=Chris Cummings - Ooh! That Could Cost Him The Gold Bob
DYEAR=2002
DGENRE=Country
TTITLE0=Betty
TTITLE1=I Will Love You 'Til I Die
TTITLE2=You Know How It Is
TTITLE3=Pamela Anderson Is In My Bedroom
TTITLE4=I Get That A Lot
TTITLE5=Meet The Parents
TTITLE6=Downtown Babylon
TTITLE7=We All Wish
TTITLE8=Benefit of Doubt
TTITLE9='Til He Comes Back In
TTITLE10=Cowboy Hats
TTITLE11=I Am On My Way
TTITLE12=Pamela Anderson Is In My Bedroom
EXTD=
EXTT0=
EXTT1=
EXTT2=
EXTT3=
EXTT4=
EXTT5=
EXTT6=
EXTT7=
EXTT8=
EXTT9=
EXTT10=
EXTT11=
EXTT12=
PLAYORDER=
